<?xml version="1.0" encoding="UTF-8" standalone="no"?>
<svg
   xmlns:dc="http://purl.org/dc/elements/1.1/"
   xmlns:cc="http://creativecommons.org/ns#"
   xmlns:rdf="http://www.w3.org/1999/02/22-rdf-syntax-ns#"
   xmlns:svg="http://www.w3.org/2000/svg"
   xmlns="http://www.w3.org/2000/svg"
   xmlns:xlink="http://www.w3.org/1999/xlink"
   xmlns:sodipodi="http://sodipodi.sourceforge.net/DTD/sodipodi-0.dtd"
   xmlns:inkscape="http://www.inkscape.org/namespaces/inkscape"
   version="1.1"
   width="180"
   height="180"
   id="svg2"
   inkscape:version="0.48.4 r9939"
   sodipodi:docname="onecharge.svg">
  <metadata
     id="metadata135">
    <rdf:RDF>
      <cc:Work
         rdf:about="">
        <dc:format>image/svg+xml</dc:format>
        <dc:type
           rdf:resource="http://purl.org/dc/dcmitype/StillImage" />
      </cc:Work>
    </rdf:RDF>
  </metadata>
  <sodipodi:namedview
     pagecolor="#ffffff"
     bordercolor="#666666"
     borderopacity="1"
     objecttolerance="10"
     gridtolerance="10"
     guidetolerance="10"
     inkscape:pageopacity="0"
     inkscape:pageshadow="2"
     inkscape:window-width="1920"
     inkscape:window-height="1056"
     id="namedview133"
     showgrid="false"
     inkscape:zoom="5.2444444"
     inkscape:cx="35.928679"
     inkscape:cy="91.632716"
     inkscape:window-x="0"
     inkscape:window-y="24"
     inkscape:window-maximized="1"
     inkscape:current-layer="svg2" />
  <title
     id="title4">VFPt_plus_thumb</title>
  <desc
     id="desc6">VFPt_plus_thumb
created with VectorFieldPlot 1.1
http://commons.wikimedia.org/wiki/User:Geek3/VectorFieldPlot

about: http://commons.wikimedia.org/wiki/File:VFPt_plus_thumb.svg
rights: GNU Free Documentation license,
        Creative Commons Attribution ShareAlike license
  </desc>
  <defs
     id="defs8">
    <radialGradient
       id="white_spot"
       cx="4.4999993"
       cy="5.9999996"
       r="22.5"
       fx="4.4999993"
       fy="5.9999996"
       gradientUnits="userSpaceOnUse">
      <stop
         stop-color="#ffffff"
         offset="0"
         stop-opacity="0.7"
         id="stop11" />
      <stop
         stop-color="#ffffff"
         offset="0.1"
         stop-opacity="0.5"
         id="stop13" />
      <stop
         stop-color="#ffffff"
         offset="0.6"
         stop-opacity="0"
         id="stop15" />
      <stop
         stop-color="#000000"
         offset="0.6"
         stop-opacity="0"
         id="stop17" />
      <stop
         stop-color="#000000"
         offset="0.75"
         stop-opacity="0.05"
         id="stop19" />
      <stop
         stop-color="#000000"
         offset="0.85"
         stop-opacity="0.15"
         id="stop21" />
      <stop
         stop-color="#000000"
         offset="1"
         stop-opacity="0.5"
         id="stop23" />
    </radialGradient>
    <path
       id="arrow1"
       stroke="none"
       fill="#000000"
       transform="scale(0.0333333333333)"
       d="M 0.3,0 L -2.2,2.25 L 3.8,0 L -2.2,-2.25 L 0.3,0 Z" />
  </defs>
  <rect
     id="background"
     x="5.8633475"
     y="9.4385595"
     width="180"
     height="180"
     style="fill:#ffffff" />
  <g
     style="fill:none;stroke:#000000;stroke-width:0.03333334;stroke-linecap:round;stroke-linejoin:round"
     id="fieldlines"
     transform="matrix(30,0,0,-30,90,90)">
    <g
       id="fieldline1">
      <path
         inkscape:connector-curvature="0"
         id="path30"
         d="M 0,0 3.0167,0.6001" />
      <g
         id="arrows1">
        <use
           height="180"
           width="180"
           y="0"
           x="0"
           id="use33"
           transform="matrix(1.9615706,0.39018064,-0.39018064,1.9615706,1.9616,0.3902)"
           xlink:href="#arrow1" />
      </g>
    </g>
    <g
       id="fieldline2">
      <path
         inkscape:connector-curvature="0"
         id="path36"
         d="M 0,0 3.0167,2.0157" />
      <g
         id="arrows2">
        <use
           height="180"
           width="180"
           y="0"
           x="0"
           id="use39"
           transform="matrix(1.6629392,1.1111405,-1.1111405,1.6629392,1.6629,1.1111)"
           xlink:href="#arrow1" />
      </g>
    </g>
    <g
       id="fieldline3">
      <path
         inkscape:connector-curvature="0"
         id="path42"
         d="M 0,0 2.0157,3.0167" />
      <g
         id="arrows3">
        <use
           height="180"
           width="180"
           y="0"
           x="0"
           id="use45"
           transform="matrix(1.1111405,1.6629392,-1.6629392,1.1111405,1.1111,1.6629)"
           xlink:href="#arrow1" />
      </g>
    </g>
    <g
       id="fieldline4">
      <path
         inkscape:connector-curvature="0"
         id="path48"
         d="M 0,0 0.6001,3.0167" />
      <g
         id="arrows4">
        <use
           height="180"
           width="180"
           y="0"
           x="0"
           id="use51"
           transform="matrix(0.39018064,1.9615706,-1.9615706,0.39018064,0.3902,1.9616)"
           xlink:href="#arrow1" />
      </g>
    </g>
    <g
       id="fieldline5">
      <path
         inkscape:connector-curvature="0"
         id="path54"
         d="M 0,0 -0.6001,3.0167" />
      <g
         id="arrows5">
        <use
           height="180"
           width="180"
           y="0"
           x="0"
           id="use57"
           transform="matrix(-0.39018064,1.9615706,-1.9615706,-0.39018064,-0.3902,1.9616)"
           xlink:href="#arrow1" />
      </g>
    </g>
    <g
       id="fieldline6">
      <path
         inkscape:connector-curvature="0"
         id="path60"
         d="M 0,0 -2.0157,3.0167" />
      <g
         id="arrows6">
        <use
           height="180"
           width="180"
           y="0"
           x="0"
           id="use63"
           transform="matrix(-1.1111405,1.6629392,-1.6629392,-1.1111405,-1.1111,1.6629)"
           xlink:href="#arrow1" />
      </g>
    </g>
    <g
       id="fieldline7">
      <path
         inkscape:connector-curvature="0"
         id="path66"
         d="M 0,0 -3.0167,2.0157" />
      <g
         id="arrows7">
        <use
           height="180"
           width="180"
           y="0"
           x="0"
           id="use69"
           transform="matrix(-1.6629392,1.1111405,-1.1111405,-1.6629392,-1.6629,1.1111)"
           xlink:href="#arrow1" />
      </g>
    </g>
    <g
       id="fieldline8">
      <path
         inkscape:connector-curvature="0"
         id="path72"
         d="M 0,0 -3.0167,0.6001" />
      <g
         id="arrows8">
        <use
           height="180"
           width="180"
           y="0"
           x="0"
           id="use75"
           transform="matrix(-1.9615706,0.39018064,-0.39018064,-1.9615706,-1.9616,0.3902)"
           xlink:href="#arrow1" />
      </g>
    </g>
    <g
       id="fieldline9">
      <path
         inkscape:connector-curvature="0"
         id="path78"
         d="M 0,0 -3.0167,-0.6001" />
      <g
         id="arrows9">
        <use
           height="180"
           width="180"
           y="0"
           x="0"
           id="use81"
           transform="matrix(-1.9615706,-0.39018064,0.39018064,-1.9615706,-1.9616,-0.3902)"
           xlink:href="#arrow1" />
      </g>
    </g>
    <g
       id="fieldline10">
      <path
         inkscape:connector-curvature="0"
         id="path84"
         d="M 0,0 -3.0167,-2.0157" />
      <g
         id="arrows10">
        <use
           height="180"
           width="180"
           y="0"
           x="0"
           id="use87"
           transform="matrix(-1.6629392,-1.1111405,1.1111405,-1.6629392,-1.6629,-1.1111)"
           xlink:href="#arrow1" />
      </g>
    </g>
    <g
       id="fieldline11">
      <path
         inkscape:connector-curvature="0"
         id="path90"
         d="M 0,0 -2.0157,-3.0167" />
      <g
         id="arrows11">
        <use
           height="180"
           width="180"
           y="0"
           x="0"
           id="use93"
           transform="matrix(-1.1111405,-1.6629392,1.6629392,-1.1111405,-1.1111,-1.6629)"
           xlink:href="#arrow1" />
      </g>
    </g>
    <g
       id="fieldline12">
      <path
         inkscape:connector-curvature="0"
         id="path96"
         d="M 0,0 -0.6001,-3.0167" />
      <g
         id="arrows12">
        <use
           height="180"
           width="180"
           y="0"
           x="0"
           id="use99"
           transform="matrix(-0.39018064,-1.9615706,1.9615706,-0.39018064,-0.3902,-1.9616)"
           xlink:href="#arrow1" />
      </g>
    </g>
    <g
       id="fieldline13">
      <path
         inkscape:connector-curvature="0"
         id="path102"
         d="M 0,0 0.6001,-3.0167" />
      <g
         id="arrows13">
        <use
           height="180"
           width="180"
           y="0"
           x="0"
           id="use105"
           transform="matrix(0.39018064,-1.9615706,1.9615706,0.39018064,0.3902,-1.9616)"
           xlink:href="#arrow1" />
      </g>
    </g>
    <g
       id="fieldline14">
      <path
         inkscape:connector-curvature="0"
         id="path108"
         d="M 0,0 2.0157,-3.0167" />
      <g
         id="arrows14">
        <use
           height="180"
           width="180"
           y="0"
           x="0"
           id="use111"
           transform="matrix(1.1111405,-1.6629392,1.6629392,1.1111405,1.1111,-1.6629)"
           xlink:href="#arrow1" />
      </g>
    </g>
    <g
       id="fieldline15">
      <path
         inkscape:connector-curvature="0"
         id="path114"
         d="M 0,0 3.0167,-2.0157" />
      <g
         id="arrows15">
        <use
           height="180"
           width="180"
           y="0"
           x="0"
           id="use117"
           transform="matrix(1.6629392,-1.1111405,1.1111405,1.6629392,1.6629,-1.1111)"
           xlink:href="#arrow1" />
      </g>
    </g>
    <g
       id="fieldline16">
      <path
         inkscape:connector-curvature="0"
         id="path120"
         d="M 0,0 3.0167,-0.6001" />
      <g
         id="arrows16">
        <use
           height="180"
           width="180"
           y="0"
           x="0"
           id="use123"
           transform="matrix(1.9615706,-0.39018064,0.39018064,1.9615706,1.9616,-0.3902)"
           xlink:href="#arrow1" />
      </g>
    </g>
  </g>
  <circle
     sodipodi:ry="14"
     sodipodi:rx="14"
     sodipodi:cy="0"
     sodipodi:cx="0"
     d="M 14,0 C 14,7.7319865 7.7319865,14 0,14 -7.7319865,14 -14,7.7319865 -14,0 c 0,-7.7319865 6.2680135,-14 14,-14 7.7319865,0 14,6.2680135 14,14 z"
     id="circle127"
     r="14"
     cy="0"
     cx="0"
     style="fill:#ffffff;stroke:none"
     transform="matrix(0.29888555,0,0,-0.29888555,90,90.000005)" />
  <circle
     sodipodi:ry="14"
     sodipodi:rx="14"
     sodipodi:cy="0"
     sodipodi:cx="0"
     d="M 14,0 C 14,7.7319865 7.7319865,14 0,14 -7.7319865,14 -14,7.7319865 -14,0 c 0,-7.7319865 6.2680135,-14 14,-14 7.7319865,0 14,6.2680135 14,14 z"
     id="circle129"
     style="fill:none;stroke:#000000;stroke-width:2"
     r="14"
     cy="0"
     cx="0"
     transform="matrix(0.29888555,0,0,-0.29888555,90.047674,90.000005)" />
  <path
     inkscape:connector-curvature="0"
     id="path131"
     style="fill:#000000;stroke:none"
     d="m 90.597771,89.402234 v -1.793313 h -1.195542 v 1.793313 h -1.793313 v 1.195542 h 1.793313 v 1.793313 h 1.195542 v -1.793313 h 1.793313 v -1.195542 h -1.793313 z" />
</svg>
