<?xml version="1.0" encoding="UTF-8" standalone="no"?>
<!-- Created with Inkscape (http://www.inkscape.org/) -->

<svg
   xmlns:dc="http://purl.org/dc/elements/1.1/"
   xmlns:cc="http://creativecommons.org/ns#"
   xmlns:rdf="http://www.w3.org/1999/02/22-rdf-syntax-ns#"
   xmlns:svg="http://www.w3.org/2000/svg"
   xmlns="http://www.w3.org/2000/svg"
   xmlns:xlink="http://www.w3.org/1999/xlink"
   xmlns:sodipodi="http://sodipodi.sourceforge.net/DTD/sodipodi-0.dtd"
   xmlns:inkscape="http://www.inkscape.org/namespaces/inkscape"
   width="744.09448819"
   height="1052.3622047"
   id="svg2"
   version="1.1"
   inkscape:version="0.48.4 r9939"
   sodipodi:docname="relmag.svg">
  <defs
     id="defs4">
    <linearGradient
       inkscape:collect="always"
       xlink:href="#linearGradient6739"
       id="linearGradient4009"
       gradientUnits="userSpaceOnUse"
       gradientTransform="translate(-202.74513,-323.70056)"
       x1="212.73734"
       y1="540.09625"
       x2="306.86874"
       y2="540.09625" />
    <linearGradient
       inkscape:collect="always"
       id="linearGradient6739">
      <stop
         style="stop-color: rgb(0, 0, 0); stop-opacity: 1;"
         offset="0"
         id="stop6741" />
      <stop
         style="stop-color: rgb(0, 0, 0); stop-opacity: 0;"
         offset="1"
         id="stop6743" />
    </linearGradient>
    <linearGradient
       inkscape:collect="always"
       xlink:href="#linearGradient6739"
       id="linearGradient4071"
       gradientUnits="userSpaceOnUse"
       gradientTransform="translate(-202.74513,-323.70056)"
       x1="212.73734"
       y1="540.09625"
       x2="306.86874"
       y2="540.09625" />
  </defs>
  <sodipodi:namedview
     id="base"
     pagecolor="#ffffff"
     bordercolor="#666666"
     borderopacity="1.0"
     inkscape:pageopacity="0.0"
     inkscape:pageshadow="2"
     inkscape:zoom="2.8"
     inkscape:cx="344.59542"
     inkscape:cy="557.55146"
     inkscape:document-units="px"
     inkscape:current-layer="layer1"
     showgrid="true"
     inkscape:snap-global="true"
     inkscape:snap-grids="true"
     showguides="true"
     inkscape:guide-bbox="true"
     inkscape:window-width="1920"
     inkscape:window-height="1056"
     inkscape:window-x="0"
     inkscape:window-y="24"
     inkscape:window-maximized="1">
    <inkscape:grid
       type="xygrid"
       id="grid2985" />
    <sodipodi:guide
       orientation="1,0"
       position="340,610"
       id="guide3811" />
    <sodipodi:guide
       orientation="1,0"
       position="360,585"
       id="guide3813" />
    <sodipodi:guide
       orientation="0,1"
       position="330,535"
       id="guide3815" />
  </sodipodi:namedview>
  <metadata
     id="metadata7">
    <rdf:RDF>
      <cc:Work
         rdf:about="">
        <dc:format>image/svg+xml</dc:format>
        <dc:type
           rdf:resource="http://purl.org/dc/dcmitype/StillImage" />
        <dc:title></dc:title>
      </cc:Work>
    </rdf:RDF>
  </metadata>
  <g
     inkscape:label="Layer 1"
     inkscape:groupmode="layer"
     id="layer1">
    <path
       style="fill:none;stroke:#ff0000;stroke-width:2;stroke-linecap:butt;stroke-linejoin:miter;stroke-opacity:1;stroke-miterlimit:4;stroke-dasharray:none"
       d="m 140.35714,582.36218 200,-120"
       id="path2987"
       inkscape:connector-curvature="0" />
    <path
       style="fill:none;stroke:#ff0000;stroke-width:2;stroke-linecap:butt;stroke-linejoin:miter;stroke-opacity:1;stroke-miterlimit:4;stroke-dasharray:none"
       d="m 560.35714,582.36218 -200,-120"
       id="path2987-0"
       inkscape:connector-curvature="0" />
    <g
       id="g4052"
       transform="translate(0,33.571429)">
      <path
         inkscape:connector-curvature="0"
         id="path2987-0-9"
         d="m 380,517.36218 -59.61977,0.15547 -47.90334,28.742 L 428,546.36218"
         style="fill:none;stroke:#000000;stroke-width:1;stroke-linecap:butt;stroke-linejoin:miter;stroke-miterlimit:4;stroke-opacity:1;stroke-dasharray:none" />
      <path
         sodipodi:nodetypes="cc"
         inkscape:connector-curvature="0"
         id="path2987-0-9-3"
         d="M 427.88024,546.43823 380,517.36218"
         style="fill:none;stroke:#000000;stroke-width:1;stroke-linecap:butt;stroke-linejoin:miter;stroke-miterlimit:4;stroke-opacity:1;stroke-dasharray:none" />
      <g
         id="g3196"
         style="display:inline"
         transform="matrix(0.73870268,0,0,0.73870268,315.53813,370.88069)">
        <path
           style="fill:url(#linearGradient4071);fill-opacity:1;fill-rule:nonzero;stroke:none;display:inline"
           id="path6737"
           d="m 42.399844,208.26355 c 18.442545,-0.95673 -19.712267,3.90727 -22.03798,4.24258 -11.7926954,0.97493 24.958741,-2.02012 37.724113,-3.03729 26.828908,-1.46111 -36.004006,5.01995 -39.56588,5.58155 1.085355,-3.11362 49.179528,-8.98514 36.185814,-3.78405 -20.521605,7.11033 -16.792912,4.93172 2.972926,3.42109 32.49289,-1.89474 -7.066248,3.65671 -18.231473,5.43346 -6.171445,-2.02539 56.914502,-9.55421 27.841948,-3.2312 -1.796724,1.69423 -11.267698,2.60468 2.442342,0.23081 1.815413,-0.31433 -3.58523,0.74906 -5.330622,1.21316 -5.89294,1.56696 -6.192358,1.98918 0.03024,2.6185 6.198382,0.46827 12.413407,0.8133 18.621369,1.2157 l -8.950364,2.5372 c -6.275976,-0.45518 -12.568466,-0.77239 -18.85069,-1.18238 -17.5594,-1.68938 18.230302,-10.97517 22.353017,-8.1286 -8.068916,1.80897 -52.926151,7.06471 -29.014303,1.90212 27.921986,-3.60746 19.483706,-0.85571 0.377291,0.0141 -19.305917,1.64839 -26.792493,2.24941 -4.198688,-5.08905 9.367845,-3.07463 -45.64805638,6.78034 -16.910139,-0.058 11.928964,-1.48713 63.006723,-6.8722 21.666261,-0.1219 -14.718852,1.05886 -67.331179,5.81692 -20.567349,-2.18524 21.505014,-3.03399 27.483536,-1.82773 3.668003,1.06111 l 9.774164,-2.6537 z"
           inkscape:connector-curvature="0" />
        <path
           style="fill:none;stroke:#000000;stroke-width:1.89999998;stroke-linecap:butt;stroke-linejoin:miter;stroke-miterlimit:4;stroke-opacity:1;stroke-dasharray:none;display:inline"
           d="m 43.217017,80.762692 -18.55466,27.012458 c 0,0 14.673873,10.45909 14.060663,19.2803"
           id="path4874"
           sodipodi:nodetypes="ccc"
           inkscape:connector-curvature="0" />
        <path
           style="fill:none;stroke:#000000;stroke-width:1.89999998;stroke-linecap:butt;stroke-linejoin:miter;stroke-miterlimit:4;stroke-opacity:1;stroke-dasharray:none;display:inline"
           d="m 45.609246,79.191148 c -0.459261,1.758049 -0.224481,-0.401957 0.357482,0.395848 10.190922,13.970593 15.596259,28.883564 15.596259,28.883564 l -7.923863,20.8417"
           id="path4876"
           sodipodi:nodetypes="cscc"
           inkscape:connector-curvature="0" />
        <path
           style="fill:none;stroke:#000000;stroke-width:1.89999998;stroke-linecap:butt;stroke-linejoin:miter;stroke-miterlimit:4;stroke-opacity:1;stroke-dasharray:none;display:inline"
           d="m 42.075112,138.9305 c -1.848344,65.27171 -5.812628,61.6568 -5.25997,63.19582 0.539796,1.5032 1.01015,3.53552 1.01015,3.53552"
           id="path4878"
           sodipodi:nodetypes="csc"
           inkscape:connector-curvature="0" />
        <path
           style="fill:none;stroke:#000000;stroke-width:1.89999998;stroke-linecap:butt;stroke-linejoin:miter;stroke-miterlimit:4;stroke-opacity:1;stroke-dasharray:none;display:inline"
           d="m 45.754972,139.94923 c 0.112983,23.61315 1.181556,56.12501 0.179774,62.03006 -0.267142,1.57469 11.618666,1.73231 11.618666,1.73231"
           id="path4880"
           sodipodi:nodetypes="csc"
           inkscape:connector-curvature="0" />
        <path
           style="fill:#000000;fill-opacity:1;fill-rule:evenodd;stroke:#000000;stroke-width:1px;stroke-linecap:butt;stroke-linejoin:miter;stroke-opacity:1;display:inline"
           d="m 36.310062,202.63139 c -2.44398,2.48468 -8.16259,2.48364 -5.55584,4.04061 5.36677,3.20549 4.97394,6.79428 8.5863,3.03046 3.93219,-4.09706 13.13198,-0.50508 -3.03046,-7.07107 z"
           id="path4882"
           sodipodi:nodetypes="cssc"
           inkscape:connector-curvature="0" />
        <path
           style="fill:#000000;fill-opacity:1;fill-rule:evenodd;stroke:#000000;stroke-width:1px;stroke-linecap:butt;stroke-linejoin:miter;stroke-opacity:1;display:inline"
           d="m 49.310062,200.05996 c -2.44398,2.48468 -5.66259,1.05507 -3.05584,2.61204 5.36677,3.20549 12.83108,6.07999 16.443441,2.31617 3.93219,-4.09706 2.77484,1.63778 -13.387601,-4.92821 z"
           id="path5757"
           sodipodi:nodetypes="cssc"
           inkscape:connector-curvature="0" />
        <path
           style="fill:#000000;fill-opacity:1;fill-rule:evenodd;stroke:#000000;stroke-width:1px;stroke-linecap:butt;stroke-linejoin:miter;stroke-opacity:1;display:inline"
           d="m 41.49209,131.08799 c -3.101087,-1.72691 -2.63234,-11.02236 -2.622522,-7.70124 0.02021,6.8375 -6.145147,10.89156 -1.489982,13.41193 5.067354,2.74354 6.593613,13.79543 4.112506,-5.71069 z"
           id="path5761"
           sodipodi:nodetypes="cssc"
           inkscape:connector-curvature="0" />
        <path
           style="fill:none;stroke:#000000;stroke-width:3;stroke-linecap:butt;stroke-linejoin:miter;stroke-miterlimit:4;stroke-opacity:1;stroke-dasharray:none;display:inline"
           d="m 42.275469,70.776614 c -0.364605,2.431913 0.09441,3.424861 1.23686,6.459691 7.140227,18.967408 5.754834,68.197445 1.377527,66.027195 -6.732975,-3.33818 3.55417,-50.358509 -1.468764,-66.017792 -0.63375,-1.975753 -1.370007,-4.552513 -1.145623,-6.469094 z"
           id="path3077"
           sodipodi:nodetypes="ccssc"
           inkscape:connector-curvature="0" />
        <path
           sodipodi:type="arc"
           style="fill:none;stroke:#000000;stroke-width:2.35336995;stroke-linecap:round;stroke-miterlimit:4;stroke-opacity:1;stroke-dasharray:none;stroke-dashoffset:0"
           id="path3075"
           sodipodi:cx="452.85715"
           sodipodi:cy="380.21933"
           sodipodi:rx="12.857142"
           sodipodi:ry="25"
           d="m 444.0348,362.03361 c 5.16533,-9.47421 13.30255,-9.01255 18.17501,1.03115 4.87245,10.04369 4.63502,25.86608 -0.53031,35.34029 -5.16533,9.47421 -13.30256,9.01255 -18.17501,-1.03115 -4.82784,-9.95173 -4.64523,-25.60063 0.40978,-35.11634"
           sodipodi:start="3.9561603"
           sodipodi:end="10.226379"
           sodipodi:open="true"
           transform="matrix(1.0720704,-0.16942492,0.13758207,0.99168391,-498.94484,-255.04686)" />
        <path
           sodipodi:type="arc"
           style="fill:none;stroke:#000000;stroke-width:2.07500005;stroke-linecap:round;stroke-miterlimit:4;stroke-opacity:1;stroke-dasharray:none;stroke-dashoffset:0"
           id="path4833"
           sodipodi:cx="295.71429"
           sodipodi:cy="372.00504"
           sodipodi:rx="3.5714285"
           sodipodi:ry="4.6428571"
           d="m 293.26364,368.62769 c 1.43482,-1.7595 3.69516,-1.67376 5.04862,0.1915 1.35345,1.86525 1.2875,4.8037 -0.14731,6.56319 -1.43482,1.7595 -3.69516,1.67376 -5.04862,-0.1915 -1.34106,-1.84817 -1.29034,-4.7544 0.11383,-6.5216"
           sodipodi:start="3.9561603"
           sodipodi:end="10.226379"
           sodipodi:open="true"
           transform="matrix(0.96576505,-0.25941831,0.25941831,0.96576505,-347.23809,-242.63029)" />
        <path
           sodipodi:type="arc"
           style="fill:none;stroke:#000000;stroke-width:2.07500005;stroke-linecap:round;stroke-miterlimit:4;stroke-opacity:1;stroke-dasharray:none;stroke-dashoffset:0"
           id="path4835"
           sodipodi:cx="295.71429"
           sodipodi:cy="372.00504"
           sodipodi:rx="3.5714285"
           sodipodi:ry="4.6428571"
           d="m 293.26364,368.62769 c 1.43482,-1.7595 3.69516,-1.67376 5.04862,0.1915 1.35345,1.86525 1.2875,4.8037 -0.14731,6.56319 -1.43482,1.7595 -3.69516,1.67376 -5.04862,-0.1915 -1.34106,-1.84817 -1.29034,-4.7544 0.11383,-6.5216"
           sodipodi:start="3.9561603"
           sodipodi:end="10.226379"
           sodipodi:open="true"
           transform="matrix(0.96576505,-0.25941831,0.25941831,0.96576505,-335.99369,-245.65071)" />
        <path
           style="fill:none;stroke:#000000;stroke-width:1.25;stroke-linecap:butt;stroke-linejoin:miter;stroke-miterlimit:4;stroke-opacity:1;stroke-dasharray:none"
           d="m 48.227263,58.017604 c -2.784718,3.480341 -11.222362,3.34837 -12.530099,1.242623"
           id="path4837"
           sodipodi:nodetypes="cc"
           inkscape:connector-curvature="0" />
        <path
           style="fill:#000000;fill-opacity:1;fill-rule:evenodd;stroke:#000000;stroke-width:1px;stroke-linecap:butt;stroke-linejoin:miter;stroke-opacity:1;display:inline"
           d="m 52.056505,127.936 c 3.423708,-0.93657 5.187859,-10.07511 4.385385,-6.85239 -1.652116,6.63494 3.367004,12.04377 -1.75528,13.3798 -5.575841,1.45434 -9.696661,11.8222 -2.630114,-6.52742 z"
           id="path5761-1"
           sodipodi:nodetypes="cssc"
           inkscape:transform-center-y="-3.1071008"
           inkscape:connector-curvature="0"
           inkscape:transform-center-x="-4.873618" />
      </g>
    </g>
  </g>
</svg>
